<svg width="2458" height="682" viewBox="0 0 2458 682" fill="none" xmlns="http://www.w3.org/2000/svg">
<path opacity="0.05" fill-rule="evenodd" clip-rule="evenodd" d="M1228.83 0C1861.45 0 2382.74 131.927 2453.02 301.785H1813.8C1750.09 228.741 1512.36 174.478 1228.83 174.478C945.309 174.478 707.583 228.741 643.868 301.785H4.64648C74.9277 131.927 596.214 0 1228.83 0ZM1823.53 366.575H2457.67C2410.41 542.957 1878.29 682 1228.83 682C579.378 682 47.2608 542.957 0 366.575H634.139C678.602 446.401 927.923 507.522 1228.83 507.522C1529.75 507.522 1779.07 446.401 1823.53 366.575ZM1228.83 225.06C1460.22 225.06 1647.8 276.968 1647.8 341C1647.8 405.032 1460.22 456.94 1228.83 456.94C997.446 456.94 809.87 405.032 809.87 341C809.87 276.968 997.448 225.06 1228.83 225.06Z" fill="white"/>
</svg>
